<?xml version="1.0" standalone="no"?>
<!DOCTYPE svg PUBLIC "-//W3C//DTD SVG 20010904//EN"
 "http://www.w3.org/TR/2001/REC-SVG-20010904/DTD/svg10.dtd">
<svg version="1.0" xmlns="http://www.w3.org/2000/svg"
 width="16.000000pt" height="16.000000pt" viewBox="0 0 16.000000 16.000000"
 preserveAspectRatio="xMidYMid meet">

<g transform="translate(0.000000,16.000000) scale(0.100000,-0.100000)"
fill="#000000" stroke="none">
<path d="M31 148 c0 -9 -9 -19 -18 -21 -17 -4 -17 -5 0 -6 22 -1 22 -38 -1
-44 -16 -4 -16 -5 1 -6 23 -1 23 -41 0 -42 -14 0 -15 -2 -3 -6 8 -3 18 -11 22
-17 5 -8 8 -7 8 2 0 16 37 16 43 0 4 -10 6 -10 6 0 1 14 41 17 41 2 0 -5 7
-10 15 -10 8 0 15 7 15 15 0 8 -4 15 -10 15 -5 0 -10 9 -10 20 0 11 5 20 10
20 6 0 10 14 10 30 0 17 -4 30 -9 30 -5 0 -12 8 -14 18 -4 16 -5 16 -6 0 -1
-11 -9 -18 -20 -18 -11 0 -22 8 -24 18 -4 16 -5 16 -6 0 -1 -23 -38 -23 -44 0
-4 15 -5 15 -6 0z m104 -74 c0 -47 -2 -50 -22 -46 -14 3 -23 12 -23 23 0 13 8
19 23 20 21 2 21 2 1 6 -13 2 -24 14 -26 26 -4 18 0 22 21 22 25 0 26 -3 26
-51z m-55 16 c0 -5 -5 -10 -11 -10 -5 0 -7 5 -4 10 3 6 8 10 11 10 2 0 4 -4 4
-10z m0 -41 c0 -28 -37 -25 -42 4 -4 20 -1 23 19 19 14 -3 23 -11 23 -23z"/>
</g>
</svg>
